<svg xmlns="http://www.w3.org/2000/svg" viewBox="0 0 1000 650">
<rect width="1000" height="650" fill="#eef7ff"/>
<rect y="430" width="1000" height="220" fill="#d5edcf"/>
<g transform="translate(130 120)">
<rect x="95" y="70" width="520" height="390" rx="40" fill="#fff" stroke="#0b65a3" stroke-width="18"/>
<rect x="95" y="70" width="520" height="95" rx="40" fill="#0b65a3"/>
<text x="355" y="130" text-anchor="middle" font-size="42" font-family="Arial" font-weight="900" fill="#fff">BOOK SELLING SLOT</text>
<g fill="#0b65a3">
<rect x="170" y="220" width="90" height="70" rx="12"/><rect x="305" y="220" width="90" height="70" rx="12"/><rect x="440" y="220" width="90" height="70" rx="12"/>
<rect x="170" y="325" width="90" height="70" rx="12"/><rect x="305" y="325" width="90" height="70" rx="12"/><rect x="440" y="325" width="90" height="70" rx="12"/>
</g>
</g>
<g transform="translate(690 275)">
<rect x="0" y="75" width="215" height="120" rx="22" fill="#0b914d"/>
<rect x="155" y="28" width="95" height="167" rx="20" fill="#0b914d"/>
<rect x="172" y="50" width="45" height="55" rx="8" fill="#b9e4ff"/>
<circle cx="58" cy="205" r="40" fill="#202833"/><circle cx="58" cy="205" r="18" fill="#e7edf2"/>
<circle cx="190" cy="205" r="40" fill="#202833"/><circle cx="190" cy="205" r="18" fill="#e7edf2"/>
<g fill="#ffca28"><circle cx="30" cy="55" r="20"/><circle cx="75" cy="45" r="22"/><circle cx="118" cy="55" r="20"/></g>
</g>
<text x="500" y="80" text-anchor="middle" font-size="50" font-family="Arial" font-weight="900" fill="#063d43">MANDI SLOT BOOKING</text>
</svg>