<svg xmlns="http://www.w3.org/2000/svg" viewBox="0 0 1000 650">
<rect width="1000" height="650" fill="#eef8f2"/>
<g transform="translate(95 130)">
<rect x="0" y="0" width="180" height="170" rx="28" fill="#fff" stroke="#dce8e1" stroke-width="8"/>
<rect x="220" y="0" width="180" height="170" rx="28" fill="#fff" stroke="#dce8e1" stroke-width="8"/>
<rect x="440" y="0" width="180" height="170" rx="28" fill="#fff" stroke="#dce8e1" stroke-width="8"/>
<rect x="660" y="0" width="180" height="170" rx="28" fill="#fff" stroke="#dce8e1" stroke-width="8"/>
<rect x="0" y="215" width="180" height="170" rx="28" fill="#fff" stroke="#dce8e1" stroke-width="8"/>
<rect x="220" y="215" width="180" height="170" rx="28" fill="#fff" stroke="#dce8e1" stroke-width="8"/>
<rect x="440" y="215" width="180" height="170" rx="28" fill="#fff" stroke="#dce8e1" stroke-width="8"/>
<rect x="660" y="215" width="180" height="170" rx="28" fill="#fff" stroke="#dce8e1" stroke-width="8"/>
<g transform="translate(40 35)"><circle cx="35" cy="45" r="32" fill="#e53935"/><circle cx="85" cy="40" r="30" fill="#ffca28"/><circle cx="60" cy="85" r="34" fill="#4caf50"/></g>
<g transform="translate(265 35)"><circle cx="35" cy="45" r="32" fill="#ff9800"/><circle cx="85" cy="45" r="30" fill="#d32f2f"/><circle cx="60" cy="85" r="34" fill="#8bc34a"/></g>
<g transform="translate(485 35)"><path d="M0 95 C25 15 75 15 110 95Z" fill="#e6bd4e"/><g stroke="#8a6817" stroke-width="5"><line x1="55" y1="20" x2="55" y2="95"/><line x1="22" y1="65" x2="90" y2="65"/></g></g>
<g transform="translate(700 42)"><path d="M10 50 C70 5 120 30 130 70 C85 95 35 100 10 50Z" fill="#0b65a3"/><circle cx="105" cy="58" r="6" fill="#fff"/></g>
<g transform="translate(40 250)"><circle cx="55" cy="55" r="45" fill="#8d6e63"/><path d="M25 60 C60 20 90 40 105 82" stroke="#4e342e" stroke-width="8" fill="none"/></g>
<g transform="translate(260 250)"><rect x="20" y="35" width="100" height="80" rx="12" fill="#43a047"/><text x="70" y="85" text-anchor="middle" font-family="Arial" font-size="18" fill="#fff" font-weight="900">NPK</text></g>
<g transform="translate(490 250)"><circle cx="52" cy="58" r="42" fill="#fff" stroke="#d9d9d9" stroke-width="12"/><circle cx="88" cy="60" r="28" fill="#fff" stroke="#d9d9d9" stroke-width="10"/></g>
<g transform="translate(705 250)"><rect x="20" y="45" width="105" height="65" rx="16" fill="#795548"/><circle cx="52" cy="42" r="22" fill="#5d4037"/><circle cx="92" cy="42" r="22" fill="#5d4037"/></g>
</g>
<text x="500" y="75" text-anchor="middle" font-size="50" font-family="Arial" font-weight="900" fill="#063d43">IMAGE BASED CATEGORIES</text>
</svg>